<mxfile host="app.diagrams.net" agent="Mozilla/5.0 (Windows NT 10.0; Win64; x64) AppleWebKit/537.36 (KHTML, like Gecko) Chrome/132.0.0.0 Safari/537.36 OPR/117.0.0.0" version="26.0.16">
  <diagram name="Page-1" id="0JIAgUjjWgJBu7_mgAuX">
    <mxGraphModel dx="1612" dy="755" grid="1" gridSize="10" guides="1" tooltips="1" connect="1" arrows="1" fold="1" page="1" pageScale="1" pageWidth="4681" pageHeight="3300" math="0" shadow="0">
      <root>
        <mxCell id="0" />
        <mxCell id="1" parent="0" />
        <mxCell id="UCMtOhngePiE-J0gadMm-1" value="" style="html=1;whiteSpace=wrap;" vertex="1" parent="1">
          <mxGeometry x="850" y="620" width="740" height="1220" as="geometry" />
        </mxCell>
        <mxCell id="UCMtOhngePiE-J0gadMm-2" value="&lt;b&gt;&lt;font style=&quot;font-size: 21px;&quot;&gt;&amp;nbsp;gestion des prescriptions&lt;/font&gt;&lt;/b&gt;" style="text;html=1;align=center;verticalAlign=middle;whiteSpace=wrap;rounded=0;" vertex="1" parent="1">
          <mxGeometry x="1010" y="660" width="390" height="30" as="geometry" />
        </mxCell>
        <mxCell id="UCMtOhngePiE-J0gadMm-3" value="&lt;b&gt;Medecin&lt;/b&gt;" style="shape=umlActor;verticalLabelPosition=bottom;verticalAlign=top;html=1;outlineConnect=0;fillColor=#d5e8d4;strokeColor=#82b366;" vertex="1" parent="1">
          <mxGeometry x="710" y="785" width="30" height="60" as="geometry" />
        </mxCell>
        <mxCell id="UCMtOhngePiE-J0gadMm-4" value="&lt;b&gt;Pharmacien&lt;/b&gt;" style="shape=umlActor;verticalLabelPosition=bottom;verticalAlign=top;html=1;outlineConnect=0;fillColor=#f8cecc;strokeColor=#b85450;" vertex="1" parent="1">
          <mxGeometry x="710" y="905" width="30" height="60" as="geometry" />
        </mxCell>
        <mxCell id="UCMtOhngePiE-J0gadMm-5" value="&lt;b&gt;Patient&lt;/b&gt;" style="shape=umlActor;verticalLabelPosition=bottom;verticalAlign=top;html=1;outlineConnect=0;fillColor=#fff2cc;strokeColor=#d6b656;" vertex="1" parent="1">
          <mxGeometry x="702" y="1135" width="30" height="60" as="geometry" />
        </mxCell>
        <mxCell id="UCMtOhngePiE-J0gadMm-6" value="«interface»&lt;br&gt;&lt;b&gt;Service de notification&lt;/b&gt;" style="html=1;whiteSpace=wrap;" vertex="1" parent="1">
          <mxGeometry x="1640" y="830" width="110" height="50" as="geometry" />
        </mxCell>
        <mxCell id="UCMtOhngePiE-J0gadMm-7" value="&lt;font style=&quot;font-size: 16px;&quot;&gt;Gerer des prescriptions&lt;/font&gt;" style="ellipse;whiteSpace=wrap;html=1;align=center;" vertex="1" parent="1">
          <mxGeometry x="870" y="820" width="230" height="40" as="geometry" />
        </mxCell>
        <mxCell id="UCMtOhngePiE-J0gadMm-12" value="&lt;span style=&quot;font-size: 16px;&quot;&gt;Authentification&lt;/span&gt;" style="ellipse;whiteSpace=wrap;html=1;align=center;" vertex="1" parent="1">
          <mxGeometry x="1340" y="1010" width="230" height="40" as="geometry" />
        </mxCell>
        <mxCell id="UCMtOhngePiE-J0gadMm-13" value="«interface»&lt;br&gt;&lt;b&gt;Service d&#39;authentification (SA)&lt;/b&gt;" style="html=1;whiteSpace=wrap;" vertex="1" parent="1">
          <mxGeometry x="1730" y="1125" width="110" height="50" as="geometry" />
        </mxCell>
        <mxCell id="UCMtOhngePiE-J0gadMm-29" value="" style="edgeStyle=none;html=1;endArrow=none;verticalAlign=bottom;rounded=0;entryX=0;entryY=0.5;entryDx=0;entryDy=0;" edge="1" parent="1" source="UCMtOhngePiE-J0gadMm-12" target="UCMtOhngePiE-J0gadMm-13">
          <mxGeometry width="160" relative="1" as="geometry">
            <mxPoint x="1060" y="1045" as="sourcePoint" />
            <mxPoint x="1220" y="1045" as="targetPoint" />
          </mxGeometry>
        </mxCell>
        <mxCell id="UCMtOhngePiE-J0gadMm-30" value="&lt;b&gt;Utilisateur&lt;/b&gt;" style="shape=umlActor;verticalLabelPosition=bottom;verticalAlign=top;html=1;outlineConnect=0;" vertex="1" parent="1">
          <mxGeometry x="530" y="925" width="30" height="60" as="geometry" />
        </mxCell>
        <mxCell id="UCMtOhngePiE-J0gadMm-31" value="" style="edgeStyle=none;html=1;endArrow=block;endFill=0;endSize=12;verticalAlign=bottom;rounded=0;entryX=0.5;entryY=0.5;entryDx=0;entryDy=0;entryPerimeter=0;" edge="1" parent="1" target="UCMtOhngePiE-J0gadMm-30">
          <mxGeometry width="160" relative="1" as="geometry">
            <mxPoint x="730" y="825" as="sourcePoint" />
            <mxPoint x="990" y="1015" as="targetPoint" />
          </mxGeometry>
        </mxCell>
        <mxCell id="UCMtOhngePiE-J0gadMm-32" value="" style="edgeStyle=none;html=1;endArrow=block;endFill=0;endSize=12;verticalAlign=bottom;rounded=0;" edge="1" parent="1" source="UCMtOhngePiE-J0gadMm-4">
          <mxGeometry width="160" relative="1" as="geometry">
            <mxPoint x="960" y="1015" as="sourcePoint" />
            <mxPoint x="550" y="955" as="targetPoint" />
          </mxGeometry>
        </mxCell>
        <mxCell id="UCMtOhngePiE-J0gadMm-34" value="" style="edgeStyle=none;html=1;endArrow=block;endFill=0;endSize=12;verticalAlign=bottom;rounded=0;" edge="1" parent="1" source="UCMtOhngePiE-J0gadMm-5">
          <mxGeometry width="160" relative="1" as="geometry">
            <mxPoint x="960" y="1015" as="sourcePoint" />
            <mxPoint x="550" y="965" as="targetPoint" />
          </mxGeometry>
        </mxCell>
        <mxCell id="UCMtOhngePiE-J0gadMm-38" value="&lt;table&gt;&lt;tbody&gt;&lt;tr&gt;&lt;td&gt;&lt;font style=&quot;font-size: 16px;&quot;&gt;Supprimer une Prescription&lt;/font&gt;&lt;/td&gt;&lt;/tr&gt;&lt;/tbody&gt;&lt;/table&gt;&lt;table&gt;&lt;tbody&gt;&lt;tr&gt;&lt;/tr&gt;&lt;/tbody&gt;&lt;/table&gt;" style="ellipse;whiteSpace=wrap;html=1;align=center;" vertex="1" parent="1">
          <mxGeometry x="1200" y="830" width="230" height="40" as="geometry" />
        </mxCell>
        <mxCell id="UCMtOhngePiE-J0gadMm-39" value="&lt;table&gt;&lt;tbody&gt;&lt;tr&gt;&lt;td&gt;&lt;font style=&quot;font-size: 16px;&quot;&gt;Modifier une Prescription&lt;/font&gt;&lt;/td&gt;&lt;/tr&gt;&lt;/tbody&gt;&lt;/table&gt;&lt;table&gt;&lt;tbody&gt;&lt;tr&gt;&lt;td&gt;&lt;/td&gt;&lt;/tr&gt;&lt;/tbody&gt;&lt;/table&gt;" style="ellipse;whiteSpace=wrap;html=1;align=center;" vertex="1" parent="1">
          <mxGeometry x="1195" y="785" width="230" height="40" as="geometry" />
        </mxCell>
        <mxCell id="UCMtOhngePiE-J0gadMm-40" value="&lt;table&gt;&lt;tbody&gt;&lt;tr&gt;&lt;td&gt;&lt;font style=&quot;font-size: 17px;&quot;&gt;Créer une Prescription&lt;/font&gt;&lt;/td&gt;&lt;/tr&gt;&lt;/tbody&gt;&lt;/table&gt;&lt;table&gt;&lt;tbody&gt;&lt;tr&gt;&lt;td&gt;&lt;/td&gt;&lt;/tr&gt;&lt;/tbody&gt;&lt;/table&gt;" style="ellipse;whiteSpace=wrap;html=1;align=center;" vertex="1" parent="1">
          <mxGeometry x="1180" y="740" width="230" height="40" as="geometry" />
        </mxCell>
        <mxCell id="UCMtOhngePiE-J0gadMm-41" value="&lt;table&gt;&lt;tbody&gt;&lt;tr&gt;&lt;td&gt;&lt;font style=&quot;font-size: 16px;&quot;&gt;Renouveler une Prescription&lt;/font&gt;&lt;/td&gt;&lt;/tr&gt;&lt;/tbody&gt;&lt;/table&gt;&lt;table&gt;&lt;tbody&gt;&lt;tr&gt;&lt;td&gt;&lt;/td&gt;&lt;/tr&gt;&lt;/tbody&gt;&lt;/table&gt;" style="ellipse;whiteSpace=wrap;html=1;align=center;" vertex="1" parent="1">
          <mxGeometry x="930" y="965" width="230" height="40" as="geometry" />
        </mxCell>
        <mxCell id="UCMtOhngePiE-J0gadMm-43" value="&lt;table&gt;&lt;tbody&gt;&lt;tr&gt;&lt;td&gt;&lt;font style=&quot;font-size: 15px;&quot;&gt;Assigner une Prescription à une Pharmacie&lt;/font&gt;&lt;/td&gt;&lt;/tr&gt;&lt;/tbody&gt;&lt;/table&gt;&lt;table&gt;&lt;tbody&gt;&lt;tr&gt;&lt;td&gt;&lt;/td&gt;&lt;/tr&gt;&lt;/tbody&gt;&lt;/table&gt;" style="ellipse;whiteSpace=wrap;html=1;align=center;" vertex="1" parent="1">
          <mxGeometry x="1140" y="925" width="330" height="40" as="geometry" />
        </mxCell>
        <mxCell id="UCMtOhngePiE-J0gadMm-44" value="&lt;font style=&quot;font-size: 16px;&quot;&gt;Lister prescriptions&lt;/font&gt;" style="ellipse;whiteSpace=wrap;html=1;align=center;" vertex="1" parent="1">
          <mxGeometry x="890" y="1230" width="230" height="40" as="geometry" />
        </mxCell>
        <mxCell id="UCMtOhngePiE-J0gadMm-46" value="&lt;table&gt;&lt;tbody&gt;&lt;tr&gt;&lt;td&gt;&lt;table&gt;&lt;tbody&gt;&lt;tr&gt;&lt;td&gt;&lt;font style=&quot;font-size: 16px;&quot;&gt;Valider&lt;/font&gt;&lt;/td&gt;&lt;/tr&gt;&lt;/tbody&gt;&lt;/table&gt;&lt;table&gt;&lt;tbody&gt;&lt;tr&gt;&lt;td&gt;&lt;/td&gt;&lt;/tr&gt;&lt;/tbody&gt;&lt;/table&gt;&lt;table&gt;&lt;tbody&gt;&lt;tr&gt;&lt;/tr&gt;&lt;/tbody&gt;&lt;/table&gt;&lt;/td&gt;&lt;/tr&gt;&lt;/tbody&gt;&lt;/table&gt;" style="ellipse;whiteSpace=wrap;html=1;align=center;" vertex="1" parent="1">
          <mxGeometry x="1110" y="1010" width="100" height="40" as="geometry" />
        </mxCell>
        <mxCell id="UCMtOhngePiE-J0gadMm-47" value="&lt;table&gt;&lt;tbody&gt;&lt;tr&gt;&lt;td&gt;&lt;table&gt;&lt;tbody&gt;&lt;tr&gt;&lt;td&gt;&lt;font style=&quot;font-size: 17px;&quot;&gt;Traiter les Prescriptions&lt;/font&gt;&lt;/td&gt;&lt;/tr&gt;&lt;/tbody&gt;&lt;/table&gt;&lt;table&gt;&lt;tbody&gt;&lt;tr&gt;&lt;td&gt;&lt;/td&gt;&lt;/tr&gt;&lt;/tbody&gt;&lt;/table&gt;&lt;table&gt;&lt;tbody&gt;&lt;tr&gt;&lt;/tr&gt;&lt;/tbody&gt;&lt;/table&gt;&lt;/td&gt;&lt;/tr&gt;&lt;/tbody&gt;&lt;/table&gt;" style="ellipse;whiteSpace=wrap;html=1;align=center;" vertex="1" parent="1">
          <mxGeometry x="880" y="1085" width="230" height="40" as="geometry" />
        </mxCell>
        <mxCell id="UCMtOhngePiE-J0gadMm-49" value="&lt;table&gt;&lt;tbody&gt;&lt;tr&gt;&lt;td&gt;&lt;table&gt;&lt;tbody&gt;&lt;tr&gt;&lt;td&gt;&lt;font style=&quot;font-size: 15px;&quot;&gt;Proposer un Médicament Équivalent&lt;/font&gt;&lt;/td&gt;&lt;/tr&gt;&lt;/tbody&gt;&lt;/table&gt;&lt;table&gt;&lt;tbody&gt;&lt;tr&gt;&lt;td&gt;&lt;/td&gt;&lt;/tr&gt;&lt;/tbody&gt;&lt;/table&gt;&lt;table&gt;&lt;tbody&gt;&lt;tr&gt;&lt;/tr&gt;&lt;/tbody&gt;&lt;/table&gt;&lt;/td&gt;&lt;/tr&gt;&lt;/tbody&gt;&lt;/table&gt;" style="ellipse;whiteSpace=wrap;html=1;align=center;" vertex="1" parent="1">
          <mxGeometry x="1180" y="1110" width="300" height="40" as="geometry" />
        </mxCell>
        <mxCell id="UCMtOhngePiE-J0gadMm-50" value="&lt;table&gt;&lt;tbody&gt;&lt;tr&gt;&lt;td&gt;&lt;table&gt;&lt;tbody&gt;&lt;tr&gt;&lt;td&gt;&lt;font style=&quot;font-size: 15px;&quot;&gt;Vérifier l’état d’une Prescription&lt;/font&gt;&lt;/td&gt;&lt;/tr&gt;&lt;/tbody&gt;&lt;/table&gt;&lt;table&gt;&lt;tbody&gt;&lt;tr&gt;&lt;td&gt;&lt;/td&gt;&lt;/tr&gt;&lt;/tbody&gt;&lt;/table&gt;&lt;table&gt;&lt;tbody&gt;&lt;tr&gt;&lt;/tr&gt;&lt;/tbody&gt;&lt;/table&gt;&lt;/td&gt;&lt;/tr&gt;&lt;/tbody&gt;&lt;/table&gt;" style="ellipse;whiteSpace=wrap;html=1;align=center;" vertex="1" parent="1">
          <mxGeometry x="1225" y="1180" width="230" height="40" as="geometry" />
        </mxCell>
        <mxCell id="UCMtOhngePiE-J0gadMm-52" value="&lt;table&gt;&lt;tbody&gt;&lt;tr&gt;&lt;td&gt;&lt;table&gt;&lt;tbody&gt;&lt;tr&gt;&lt;td&gt;&lt;span style=&quot;font-size: 16px;&quot;&gt;Rejeter&lt;/span&gt;&lt;/td&gt;&lt;/tr&gt;&lt;/tbody&gt;&lt;/table&gt;&lt;table&gt;&lt;tbody&gt;&lt;tr&gt;&lt;td&gt;&lt;/td&gt;&lt;/tr&gt;&lt;/tbody&gt;&lt;/table&gt;&lt;table&gt;&lt;tbody&gt;&lt;tr&gt;&lt;/tr&gt;&lt;/tbody&gt;&lt;/table&gt;&lt;/td&gt;&lt;/tr&gt;&lt;/tbody&gt;&lt;/table&gt;" style="ellipse;whiteSpace=wrap;html=1;align=center;" vertex="1" parent="1">
          <mxGeometry x="1180" y="1060" width="100" height="40" as="geometry" />
        </mxCell>
        <mxCell id="UCMtOhngePiE-J0gadMm-53" value="&lt;table&gt;&lt;tbody&gt;&lt;tr&gt;&lt;td&gt;&lt;table&gt;&lt;tbody&gt;&lt;tr&gt;&lt;td&gt;&lt;table&gt;&lt;tbody&gt;&lt;tr&gt;&lt;td&gt;&lt;font style=&quot;font-size: 15px;&quot;&gt;Télécharger une Ordonnance&lt;/font&gt;&lt;/td&gt;&lt;/tr&gt;&lt;/tbody&gt;&lt;/table&gt;&lt;table&gt;&lt;tbody&gt;&lt;tr&gt;&lt;td&gt;&lt;/td&gt;&lt;/tr&gt;&lt;/tbody&gt;&lt;/table&gt;&lt;/td&gt;&lt;/tr&gt;&lt;/tbody&gt;&lt;/table&gt;&lt;table&gt;&lt;tbody&gt;&lt;tr&gt;&lt;td&gt;&lt;/td&gt;&lt;/tr&gt;&lt;/tbody&gt;&lt;/table&gt;&lt;table&gt;&lt;tbody&gt;&lt;tr&gt;&lt;/tr&gt;&lt;/tbody&gt;&lt;/table&gt;&lt;/td&gt;&lt;/tr&gt;&lt;/tbody&gt;&lt;/table&gt;" style="ellipse;whiteSpace=wrap;html=1;align=center;" vertex="1" parent="1">
          <mxGeometry x="1225" y="1250" width="230" height="40" as="geometry" />
        </mxCell>
        <mxCell id="UCMtOhngePiE-J0gadMm-55" value="&lt;table&gt;&lt;tbody&gt;&lt;tr&gt;&lt;td&gt;&lt;table&gt;&lt;tbody&gt;&lt;tr&gt;&lt;td&gt;&lt;font style=&quot;font-size: 16px;&quot;&gt;voir historique des Prescriptions&lt;/font&gt;&lt;/td&gt;&lt;/tr&gt;&lt;/tbody&gt;&lt;/table&gt;&lt;table&gt;&lt;tbody&gt;&lt;tr&gt;&lt;td&gt;&lt;/td&gt;&lt;/tr&gt;&lt;/tbody&gt;&lt;/table&gt;&lt;table&gt;&lt;tbody&gt;&lt;tr&gt;&lt;/tr&gt;&lt;/tbody&gt;&lt;/table&gt;&lt;/td&gt;&lt;/tr&gt;&lt;/tbody&gt;&lt;/table&gt;" style="ellipse;whiteSpace=wrap;html=1;align=center;" vertex="1" parent="1">
          <mxGeometry x="1200" y="880" width="280" height="40" as="geometry" />
        </mxCell>
        <mxCell id="UCMtOhngePiE-J0gadMm-56" value="" style="edgeStyle=none;html=1;endArrow=block;endFill=0;endSize=12;verticalAlign=bottom;rounded=0;entryX=1;entryY=0;entryDx=0;entryDy=0;exitX=0;exitY=0.5;exitDx=0;exitDy=0;" edge="1" parent="1" source="UCMtOhngePiE-J0gadMm-40" target="UCMtOhngePiE-J0gadMm-7">
          <mxGeometry width="160" relative="1" as="geometry">
            <mxPoint x="1130" y="990" as="sourcePoint" />
            <mxPoint x="1290" y="990" as="targetPoint" />
          </mxGeometry>
        </mxCell>
        <mxCell id="UCMtOhngePiE-J0gadMm-57" value="" style="edgeStyle=none;html=1;endArrow=block;endFill=0;endSize=12;verticalAlign=bottom;rounded=0;entryX=0.927;entryY=0.304;entryDx=0;entryDy=0;exitX=0;exitY=0.5;exitDx=0;exitDy=0;entryPerimeter=0;" edge="1" parent="1" source="UCMtOhngePiE-J0gadMm-39" target="UCMtOhngePiE-J0gadMm-7">
          <mxGeometry width="160" relative="1" as="geometry">
            <mxPoint x="830" y="740" as="sourcePoint" />
            <mxPoint x="990" y="740" as="targetPoint" />
          </mxGeometry>
        </mxCell>
        <mxCell id="UCMtOhngePiE-J0gadMm-58" value="" style="edgeStyle=none;html=1;endArrow=block;endFill=0;endSize=12;verticalAlign=bottom;rounded=0;entryX=0.942;entryY=0.646;entryDx=0;entryDy=0;entryPerimeter=0;exitX=0;exitY=0.5;exitDx=0;exitDy=0;" edge="1" parent="1" source="UCMtOhngePiE-J0gadMm-38" target="UCMtOhngePiE-J0gadMm-7">
          <mxGeometry width="160" relative="1" as="geometry">
            <mxPoint x="1130" y="990" as="sourcePoint" />
            <mxPoint x="1290" y="990" as="targetPoint" />
          </mxGeometry>
        </mxCell>
        <mxCell id="UCMtOhngePiE-J0gadMm-59" value="" style="edgeStyle=none;html=1;endArrow=block;endFill=0;endSize=12;verticalAlign=bottom;rounded=0;exitX=0;exitY=0.5;exitDx=0;exitDy=0;" edge="1" parent="1" source="UCMtOhngePiE-J0gadMm-55" target="UCMtOhngePiE-J0gadMm-7">
          <mxGeometry width="160" relative="1" as="geometry">
            <mxPoint x="1130" y="970" as="sourcePoint" />
            <mxPoint x="1290" y="970" as="targetPoint" />
          </mxGeometry>
        </mxCell>
        <mxCell id="UCMtOhngePiE-J0gadMm-60" value="" style="edgeStyle=none;html=1;endArrow=block;endFill=0;endSize=12;verticalAlign=bottom;rounded=0;entryX=0.654;entryY=0.932;entryDx=0;entryDy=0;entryPerimeter=0;exitX=0;exitY=0.5;exitDx=0;exitDy=0;" edge="1" parent="1" source="UCMtOhngePiE-J0gadMm-43" target="UCMtOhngePiE-J0gadMm-7">
          <mxGeometry width="160" relative="1" as="geometry">
            <mxPoint x="1130" y="1010" as="sourcePoint" />
            <mxPoint x="1290" y="1010" as="targetPoint" />
          </mxGeometry>
        </mxCell>
        <mxCell id="UCMtOhngePiE-J0gadMm-61" value="" style="edgeStyle=none;html=1;endArrow=block;endFill=0;endSize=12;verticalAlign=bottom;rounded=0;entryX=0.5;entryY=1;entryDx=0;entryDy=0;exitX=0.5;exitY=0;exitDx=0;exitDy=0;" edge="1" parent="1" source="UCMtOhngePiE-J0gadMm-41" target="UCMtOhngePiE-J0gadMm-7">
          <mxGeometry width="160" relative="1" as="geometry">
            <mxPoint x="1130" y="1010" as="sourcePoint" />
            <mxPoint x="1290" y="1010" as="targetPoint" />
          </mxGeometry>
        </mxCell>
        <mxCell id="UCMtOhngePiE-J0gadMm-62" value="" style="edgeStyle=none;html=1;endArrow=none;verticalAlign=bottom;rounded=0;entryX=0;entryY=0.5;entryDx=0;entryDy=0;" edge="1" parent="1" source="UCMtOhngePiE-J0gadMm-3" target="UCMtOhngePiE-J0gadMm-7">
          <mxGeometry width="160" relative="1" as="geometry">
            <mxPoint x="1130" y="1080" as="sourcePoint" />
            <mxPoint x="1290" y="1080" as="targetPoint" />
          </mxGeometry>
        </mxCell>
        <mxCell id="UCMtOhngePiE-J0gadMm-63" value="" style="edgeStyle=none;html=1;endArrow=none;verticalAlign=bottom;rounded=0;entryX=0;entryY=0.5;entryDx=0;entryDy=0;exitX=0.5;exitY=0.5;exitDx=0;exitDy=0;exitPerimeter=0;" edge="1" parent="1" source="UCMtOhngePiE-J0gadMm-5" target="UCMtOhngePiE-J0gadMm-44">
          <mxGeometry width="160" relative="1" as="geometry">
            <mxPoint x="730" y="940" as="sourcePoint" />
            <mxPoint x="890" y="940" as="targetPoint" />
          </mxGeometry>
        </mxCell>
        <mxCell id="UCMtOhngePiE-J0gadMm-64" value="" style="edgeStyle=none;html=1;endArrow=none;verticalAlign=bottom;rounded=0;entryX=0;entryY=0.5;entryDx=0;entryDy=0;" edge="1" parent="1" source="UCMtOhngePiE-J0gadMm-4" target="UCMtOhngePiE-J0gadMm-47">
          <mxGeometry width="160" relative="1" as="geometry">
            <mxPoint x="1130" y="1120" as="sourcePoint" />
            <mxPoint x="1290" y="1120" as="targetPoint" />
          </mxGeometry>
        </mxCell>
        <mxCell id="UCMtOhngePiE-J0gadMm-65" value="&amp;lt;&amp;lt;extend&amp;gt;&amp;gt;" style="edgeStyle=none;html=1;startArrow=open;endArrow=none;startSize=12;verticalAlign=bottom;dashed=1;labelBackgroundColor=none;rounded=0;exitX=0.78;exitY=0.164;exitDx=0;exitDy=0;exitPerimeter=0;" edge="1" parent="1" source="UCMtOhngePiE-J0gadMm-47" target="UCMtOhngePiE-J0gadMm-46">
          <mxGeometry width="160" relative="1" as="geometry">
            <mxPoint x="1130" y="1120" as="sourcePoint" />
            <mxPoint x="1290" y="1120" as="targetPoint" />
          </mxGeometry>
        </mxCell>
        <mxCell id="UCMtOhngePiE-J0gadMm-66" value="&amp;lt;&amp;lt;extend&amp;gt;&amp;gt;" style="edgeStyle=none;html=1;startArrow=open;endArrow=none;startSize=12;verticalAlign=bottom;dashed=1;labelBackgroundColor=none;rounded=0;entryX=0;entryY=0.5;entryDx=0;entryDy=0;" edge="1" parent="1" source="UCMtOhngePiE-J0gadMm-47" target="UCMtOhngePiE-J0gadMm-52">
          <mxGeometry width="160" relative="1" as="geometry">
            <mxPoint x="1130" y="1120" as="sourcePoint" />
            <mxPoint x="1290" y="1120" as="targetPoint" />
          </mxGeometry>
        </mxCell>
        <mxCell id="UCMtOhngePiE-J0gadMm-67" value="" style="edgeStyle=none;html=1;endArrow=block;endFill=0;endSize=12;verticalAlign=bottom;rounded=0;entryX=1;entryY=0.5;entryDx=0;entryDy=0;exitX=0;exitY=0.5;exitDx=0;exitDy=0;" edge="1" parent="1" source="UCMtOhngePiE-J0gadMm-49" target="UCMtOhngePiE-J0gadMm-47">
          <mxGeometry width="160" relative="1" as="geometry">
            <mxPoint x="1130" y="1250" as="sourcePoint" />
            <mxPoint x="1290" y="1250" as="targetPoint" />
          </mxGeometry>
        </mxCell>
        <mxCell id="UCMtOhngePiE-J0gadMm-68" value="" style="edgeStyle=none;html=1;endArrow=block;endFill=0;endSize=12;verticalAlign=bottom;rounded=0;entryX=1;entryY=0.5;entryDx=0;entryDy=0;" edge="1" parent="1" target="UCMtOhngePiE-J0gadMm-44">
          <mxGeometry width="160" relative="1" as="geometry">
            <mxPoint x="1230" y="1200" as="sourcePoint" />
            <mxPoint x="1290" y="1150" as="targetPoint" />
          </mxGeometry>
        </mxCell>
        <mxCell id="UCMtOhngePiE-J0gadMm-70" value="" style="edgeStyle=none;html=1;endArrow=block;endFill=0;endSize=12;verticalAlign=bottom;rounded=0;" edge="1" parent="1" source="UCMtOhngePiE-J0gadMm-53">
          <mxGeometry width="160" relative="1" as="geometry">
            <mxPoint x="1130" y="1150" as="sourcePoint" />
            <mxPoint x="1130" y="1250" as="targetPoint" />
          </mxGeometry>
        </mxCell>
      </root>
    </mxGraphModel>
  </diagram>
</mxfile>
